<svg width="59" height="24" viewBox="0 0 59 24" fill="none" xmlns="http://www.w3.org/2000/svg">
<rect x="6" y="1" width="53" height="22" rx="1" fill="#191919"/>
<path d="M15.764 10.959V14.361H21.272V10.959H15.764ZM20.444 13.605H16.592V13.038H20.444V13.605ZM16.592 12.318V11.715H20.444V12.318H16.592ZM14.792 8.358V9.15H17.357C16.673 9.672 15.674 10.113 14.351 10.473L14.81 11.229C16.304 10.689 17.402 9.996 18.104 9.168V10.689H18.932V9.159C19.607 10.005 20.714 10.698 22.262 11.229L22.631 10.455C21.344 10.131 20.363 9.69 19.697 9.15H22.244V8.358H18.932V7.602H18.104V8.358H14.792ZM14.612 14.901V15.684H22.397V14.901H14.612ZM24.242 9.204V9.933H26.681C26.591 10.077 26.483 10.23 26.375 10.383H23.756V11.139H25.763C25.151 11.805 24.404 12.444 23.522 13.038L23.981 13.767C24.449 13.443 24.89 13.11 25.304 12.75V15.936H26.114V15.594H30.011V15.936H30.821V11.589H26.456C26.573 11.445 26.69 11.292 26.816 11.139H31.676V10.383H27.32C27.41 10.239 27.491 10.086 27.581 9.933H31.154V9.204H27.923C27.986 9.042 28.049 8.871 28.112 8.691C29.246 8.601 30.245 8.466 31.1 8.286L30.704 7.611C28.976 7.944 26.834 8.115 24.296 8.115L24.539 8.817C25.511 8.817 26.429 8.79 27.275 8.745C27.212 8.898 27.149 9.051 27.077 9.204H24.242ZM26.114 13.371H30.011V13.794H26.114V13.371ZM30.011 12.723H26.114V12.282H30.011V12.723ZM26.114 14.442H30.011V14.901H26.114V14.442ZM35.051 9.447V13.029H37.283V14.874C37.283 15.036 37.184 15.117 36.995 15.117C36.743 15.117 36.473 15.099 36.194 15.063L36.383 15.9H37.292C37.85 15.9 38.138 15.621 38.138 15.081V13.029H40.163V9.447H37.724C37.796 9.231 37.85 8.997 37.904 8.763H40.784V7.926H33.35V11.436C33.332 13.092 33.107 14.397 32.675 15.333L33.323 15.909C33.881 14.784 34.178 13.29 34.214 11.436V8.763H37.058C37.013 8.997 36.959 9.222 36.887 9.447H35.051ZM39.335 12.255H35.879V11.589H39.335V12.255ZM35.879 10.86V10.221H39.335V10.86H35.879ZM35.636 13.308C35.258 14.028 34.799 14.649 34.259 15.171L34.97 15.675C35.51 15.108 35.987 14.442 36.383 13.668L35.636 13.308ZM39.506 13.299L38.822 13.731C39.398 14.451 39.848 15.108 40.181 15.702L40.892 15.216C40.568 14.667 40.1 14.028 39.506 13.299ZM42.071 9.069V9.915H43.448C43.835 11.247 44.528 12.417 45.518 13.407C44.564 14.226 43.367 14.82 41.909 15.198L42.368 15.954C43.853 15.522 45.104 14.856 46.121 13.956C47.075 14.766 48.281 15.441 49.73 15.981L50.207 15.261C48.821 14.757 47.651 14.118 46.715 13.353C47.561 12.426 48.2 11.283 48.632 9.915H50.009V9.069H46.598C46.319 8.475 46.013 7.962 45.689 7.53L44.834 7.845C45.176 8.232 45.464 8.637 45.698 9.069H42.071ZM44.267 9.915H47.75C47.39 11.049 46.841 12.021 46.112 12.822C45.257 11.994 44.645 11.022 44.267 9.915Z" fill="white"/>
<path d="M0.442899 11.6204L6.1746 6.70748C6.49894 6.42948 7 6.65993 7 7.08711L7 16.9129C7 17.3401 6.49894 17.5705 6.1746 17.2925L0.4429 12.3796C0.210094 12.1801 0.210094 11.8199 0.442899 11.6204Z" fill="#191919"/>
</svg>
