<svg width="70" height="70" viewBox="0 0 48 48" fill="none" xmlns="http://www.w3.org/2000/svg">
<g filter="url(#filter0_b_2078_789)">
<circle cx="24" cy="24" r="24" fill="#191919" fill-opacity="0.7"/>
</g>
<path d="M12.1971 13.86V21H14.8071C15.9671 21 16.8371 20.68 17.4371 20.04C18.0071 19.43 18.2971 18.56 18.2971 17.43C18.2971 16.29 18.0071 15.42 17.4371 14.82C16.8371 14.18 15.9671 13.86 14.8071 13.86H12.1971ZM13.3671 14.86H14.5871C15.4771 14.86 16.1271 15.06 16.5371 15.47C16.9371 15.87 17.1371 16.53 17.1371 17.43C17.1371 18.31 16.9371 18.96 16.5371 19.38C16.1271 19.79 15.4771 20 14.5871 20H13.3671V14.86ZM21.7343 15.69C21.4143 15.69 21.1443 15.78 20.9143 15.97C20.7243 16.11 20.5643 16.31 20.4243 16.57V15.83H19.2943V21H20.4243V18.26C20.4243 17.82 20.5543 17.47 20.8343 17.2C21.0743 16.96 21.3443 16.85 21.6443 16.85C21.8843 16.85 22.1243 16.88 22.3843 16.96V15.82C22.2043 15.73 21.9843 15.69 21.7343 15.69ZM25.3846 15.69C24.7246 15.69 24.2046 15.8 23.8246 16.04C23.3746 16.3 23.0946 16.72 22.9846 17.29L24.1146 17.38C24.1746 17.11 24.3246 16.91 24.5446 16.78C24.7346 16.66 24.9846 16.61 25.3046 16.61C26.0446 16.61 26.4146 16.94 26.4146 17.62V17.82L25.2846 17.85C24.5246 17.87 23.9346 18.03 23.5146 18.33C23.0546 18.64 22.8346 19.09 22.8346 19.67C22.8346 20.1 22.9946 20.45 23.3146 20.73C23.6246 21 24.0446 21.14 24.5846 21.14C25.0346 21.14 25.4246 21.06 25.7546 20.91C26.0446 20.77 26.2946 20.58 26.4946 20.32V21H27.5546V17.7C27.5546 17.07 27.3946 16.59 27.0746 16.26C26.7146 15.88 26.1446 15.69 25.3846 15.69ZM26.4146 18.64V18.9C26.4146 19.3 26.2546 19.63 25.9546 19.89C25.6546 20.14 25.2846 20.27 24.8446 20.27C24.5946 20.27 24.3946 20.2 24.2346 20.08C24.0746 19.96 24.0046 19.81 24.0046 19.63C24.0046 19.01 24.4546 18.69 25.3646 18.67L26.4146 18.64ZM30.9072 15.69C30.2072 15.69 29.6372 15.93 29.2072 16.41C28.7672 16.89 28.5572 17.52 28.5572 18.3C28.5572 19.08 28.7672 19.71 29.2072 20.18C29.6372 20.64 30.2072 20.88 30.9072 20.88C31.5472 20.88 32.0572 20.61 32.4372 20.08V20.84C32.4372 21.76 32.0072 22.22 31.1472 22.22C30.7472 22.22 30.4572 22.16 30.2772 22.05C30.0872 21.93 29.9672 21.73 29.9072 21.44H28.7672C28.8672 22.02 29.1072 22.44 29.4872 22.72C29.8672 22.98 30.4172 23.12 31.1472 23.12C32.7672 23.12 33.5772 22.3 33.5772 20.67V15.83H32.4372V16.46C32.0572 15.94 31.5472 15.69 30.9072 15.69ZM31.0872 16.61C31.5172 16.61 31.8572 16.76 32.0972 17.06C32.3272 17.36 32.4472 17.77 32.4472 18.3C32.4472 18.82 32.3272 19.22 32.0972 19.52C31.8572 19.8 31.5172 19.95 31.0772 19.95C30.5772 19.95 30.2272 19.78 30.0072 19.45C29.8172 19.17 29.7272 18.79 29.7272 18.3C29.7272 17.76 29.8472 17.35 30.0872 17.06C30.3272 16.76 30.6572 16.61 31.0872 16.61ZM14.2532 27.72C13.4832 27.72 12.8532 27.89 12.3532 28.24C11.8132 28.6 11.5532 29.1 11.5532 29.73C11.5532 30.36 11.8232 30.84 12.3732 31.17C12.5832 31.29 13.1332 31.49 14.0132 31.77C14.8032 32.01 15.2632 32.17 15.4032 32.24C15.8432 32.46 16.0732 32.76 16.0732 33.14C16.0732 33.44 15.9132 33.67 15.6132 33.85C15.3132 34.02 14.8932 34.11 14.3732 34.11C13.7832 34.11 13.3532 34 13.0732 33.8C12.7632 33.57 12.5732 33.18 12.4932 32.64H11.3332C11.3832 33.55 11.7132 34.21 12.3132 34.63C12.8032 34.97 13.4932 35.14 14.3732 35.14C15.2832 35.14 15.9932 34.95 16.4932 34.59C16.9932 34.22 17.2432 33.71 17.2432 33.07C17.2432 32.41 16.9332 31.9 16.3132 31.53C16.0332 31.37 15.4132 31.13 14.4432 30.83C13.7832 30.62 13.3732 30.47 13.2232 30.39C12.8832 30.21 12.7232 29.96 12.7232 29.66C12.7232 29.32 12.8632 29.07 13.1632 28.92C13.4032 28.79 13.7432 28.73 14.1932 28.73C14.7132 28.73 15.1132 28.82 15.3732 29.02C15.6332 29.21 15.8232 29.53 15.9232 29.97H17.0832C17.0132 29.19 16.7232 28.61 16.2232 28.24C15.7532 27.89 15.0932 27.72 14.2532 27.72ZM20.4669 29.69C19.6569 29.69 19.0269 29.96 18.5769 30.5C18.1569 30.99 17.9469 31.63 17.9469 32.41C17.9469 33.21 18.1569 33.86 18.5869 34.36C19.0269 34.88 19.6469 35.14 20.4469 35.14C21.1169 35.14 21.6569 34.97 22.0569 34.64C22.4669 34.3 22.7369 33.78 22.8569 33.08H21.7269C21.6369 33.83 21.2169 34.21 20.4569 34.21C20.0169 34.21 19.6869 34.05 19.4669 33.74C19.2269 33.42 19.1169 32.97 19.1169 32.4C19.1169 31.84 19.2369 31.4 19.4769 31.09C19.7169 30.77 20.0469 30.62 20.4669 30.62C20.8069 30.62 21.0869 30.7 21.2969 30.86C21.4969 31.02 21.6369 31.26 21.7069 31.59H22.8369C22.7369 30.94 22.4769 30.46 22.0669 30.14C21.6669 29.84 21.1369 29.69 20.4669 29.69ZM26.1923 29.69C25.8723 29.69 25.6023 29.78 25.3723 29.97C25.1823 30.11 25.0223 30.31 24.8823 30.57V29.83H23.7523V35H24.8823V32.26C24.8823 31.82 25.0123 31.47 25.2923 31.2C25.5323 30.96 25.8023 30.85 26.1023 30.85C26.3423 30.85 26.5823 30.88 26.8423 30.96V29.82C26.6623 29.73 26.4423 29.69 26.1923 29.69ZM29.8926 29.69C29.1026 29.69 28.4726 29.94 28.0026 30.46C27.5226 30.97 27.2926 31.62 27.2926 32.42C27.2926 33.21 27.5226 33.86 27.9926 34.36C28.4726 34.88 29.1026 35.14 29.8926 35.14C30.6726 35.14 31.3126 34.88 31.7926 34.36C32.2526 33.86 32.4926 33.21 32.4926 32.42C32.4926 31.62 32.2526 30.97 31.7826 30.46C31.3026 29.94 30.6726 29.69 29.8926 29.69ZM29.8926 30.62C30.3626 30.62 30.7326 30.8 30.9926 31.18C31.2126 31.5 31.3326 31.92 31.3326 32.42C31.3326 32.91 31.2126 33.32 30.9926 33.65C30.7326 34.02 30.3626 34.21 29.8926 34.21C29.4126 34.21 29.0526 34.02 28.7926 33.65C28.5726 33.33 28.4626 32.92 28.4626 32.42C28.4626 31.92 28.5726 31.5 28.7926 31.18C29.0526 30.8 29.4126 30.62 29.8926 30.62ZM33.5887 27.72V35H34.7287V27.72H33.5887ZM36.1277 27.72V35H37.2677V27.72H36.1277Z" fill="white"/>
<defs>
<filter id="filter0_b_2078_789" x="-30" y="-30" width="108" height="108" filterUnits="userSpaceOnUse" color-interpolation-filters="sRGB">
<feFlood flood-opacity="0" result="BackgroundImageFix"/>
<feGaussianBlur in="BackgroundImage" stdDeviation="15"/>
<feComposite in2="SourceAlpha" operator="in" result="effect1_backgroundBlur_2078_789"/>
<feBlend mode="normal" in="SourceGraphic" in2="effect1_backgroundBlur_2078_789" result="shape"/>
</filter>
</defs>
</svg>
