<svg width="564" height="432" viewBox="0 0 564 432" fill="none" xmlns="http://www.w3.org/2000/svg">
<path fill-rule="evenodd" clip-rule="evenodd" d="M0 432V0H197.996V216L395.993 0C395.993 0 421.493 2.5 456.492 23.5C496.491 47.5 564.93 113.9 563.99 217C562.49 381.5 413.993 432 413.993 432H0ZM408.063 40.11C418.493 43.8453 428.52 48.6228 437.992 54.37C445.742 59.02 472.832 76.84 495.801 110.77C517.521 142.86 528.361 178.49 528.011 216.67C527.491 273.38 506.771 320.79 466.422 357.58C448.879 373.51 428.865 386.486 407.163 396H341.994V112.187L408.063 40.11ZM305.995 151.46L81.8385 396H305.995V151.46ZM161.997 36V255.273L35.9994 392.727V36H161.997Z" fill="white"/>
</svg>
