<svg width="18" height="25" viewBox="0 0 18 25" fill="none" xmlns="http://www.w3.org/2000/svg">
<path d="M0.31215 24.9325C0.395823 24.9768 0.488628 25 0.582808 25C0.700351 24.9998 0.8151 24.9632 0.911987 24.895L17.7489 12.9997C17.8263 12.945 17.8897 12.8719 17.9334 12.7865C17.9771 12.7011 18 12.6062 18 12.5097C18 12.4133 17.9771 12.3183 17.9334 12.233C17.8897 12.1476 17.8263 12.0744 17.7489 12.0197L0.911987 0.104479C0.82397 0.0426945 0.721102 0.00686414 0.614593 0.000891744C0.508083 -0.00508065 0.402018 0.019034 0.307954 0.0706081C0.21389 0.122182 0.135437 0.199237 0.0811421 0.293377C0.0268474 0.387516 -0.00120568 0.495129 3.97346e-05 0.604489V24.405C6.40287e-05 24.5138 0.0291719 24.6205 0.0841991 24.7135C0.139226 24.8065 0.218067 24.8822 0.31215 24.9325Z" fill="#E5E5E5"/>
</svg>
