<svg width="59" height="24" viewBox="0 0 59 24" fill="none" xmlns="http://www.w3.org/2000/svg">
<rect x="6" y="1" width="53" height="22" rx="1" fill="white"/>
<path d="M18.509 10.815C18.122 10.851 17.717 10.878 17.285 10.914V10.392H18.599V9.69H17.285V9.159H16.493V9.69H15.728C15.908 9.429 16.088 9.141 16.25 8.835H18.68V8.079H16.601C16.655 7.944 16.7 7.809 16.754 7.674L15.908 7.539C15.836 7.719 15.773 7.899 15.701 8.079H14.495V8.835H15.341C15.143 9.177 14.945 9.465 14.738 9.699L14.918 10.392H16.493V10.968C15.908 11.004 15.287 11.031 14.63 11.058L14.729 11.796C15.341 11.76 15.926 11.715 16.493 11.679V12.246H17.285V11.616L18.509 11.508V10.815ZM19.868 10.401H20.84V12.255H21.659V10.401H22.523V9.654H19.922V8.88C20.876 8.772 21.686 8.565 22.343 8.277L21.785 7.647C21.191 7.926 20.309 8.124 19.139 8.232V9.717C19.121 10.482 18.914 11.148 18.536 11.706L19.13 12.327C19.508 11.769 19.76 11.13 19.868 10.401ZM21.605 12.453H15.503V15.927H16.367V15.612H20.741V15.927H21.605V12.453ZM16.367 14.883V14.352H20.741V14.883H16.367ZM16.367 13.677V13.164H20.741V13.677H16.367ZM24.332 8.025V8.862H26.843V9.402C26.825 9.906 26.789 10.374 26.735 10.824H23.747V11.652H26.582C26.474 12.147 26.321 12.597 26.132 13.011C25.691 13.875 24.854 14.595 23.612 15.162L24.089 15.927C25.331 15.396 26.231 14.64 26.789 13.659C27.086 13.092 27.311 12.426 27.473 11.652H28.031V14.721C28.031 15.423 28.364 15.783 29.03 15.783H30.47C30.848 15.783 31.127 15.693 31.307 15.522C31.505 15.342 31.649 14.775 31.721 13.83L30.92 13.569C30.884 14.253 30.812 14.667 30.713 14.793C30.623 14.919 30.488 14.982 30.308 14.982H29.291C29.012 14.982 28.877 14.829 28.877 14.541V11.652H31.595V10.824H27.608C27.662 10.374 27.698 9.906 27.716 9.402V8.862H30.884V8.025H24.332ZM33.287 10.509H35.483C34.871 12.399 33.944 13.893 32.702 14.991L33.143 15.783C34.124 14.991 34.943 13.929 35.591 12.597C35.879 13.128 36.32 13.632 36.905 14.1C36.266 14.487 35.492 14.847 34.592 15.171L35.042 15.981C36.077 15.576 36.95 15.126 37.661 14.631C38.399 15.099 39.317 15.54 40.406 15.936L40.847 15.126C39.884 14.802 39.056 14.451 38.372 14.073C39.038 13.479 39.479 12.813 39.713 12.075V11.355H36.113C36.203 11.085 36.302 10.806 36.392 10.509H40.73V9.69H36.608C36.761 9.069 36.896 8.403 37.004 7.692L36.131 7.584C36.023 8.322 35.888 9.024 35.717 9.69H34.385L34.853 8.025L33.998 7.881L33.287 10.509ZM36.212 12.129H38.849C38.597 12.651 38.183 13.146 37.616 13.605C36.977 13.155 36.509 12.66 36.212 12.129ZM38.516 7.593L37.94 8.16C38.606 8.673 39.11 9.159 39.47 9.627L40.082 9.015C39.659 8.538 39.137 8.061 38.516 7.593ZM42.071 9.069V9.915H43.448C43.835 11.247 44.528 12.417 45.518 13.407C44.564 14.226 43.367 14.82 41.909 15.198L42.368 15.954C43.853 15.522 45.104 14.856 46.121 13.956C47.075 14.766 48.281 15.441 49.73 15.981L50.207 15.261C48.821 14.757 47.651 14.118 46.715 13.353C47.561 12.426 48.2 11.283 48.632 9.915H50.009V9.069H46.598C46.319 8.475 46.013 7.962 45.689 7.53L44.834 7.845C45.176 8.232 45.464 8.637 45.698 9.069H42.071ZM44.267 9.915H47.75C47.39 11.049 46.841 12.021 46.112 12.822C45.257 11.994 44.645 11.022 44.267 9.915Z" fill="#191919"/>
<path d="M0.442899 11.6204L6.1746 6.70748C6.49894 6.42948 7 6.65993 7 7.08711L7 16.9129C7 17.3401 6.49894 17.5705 6.1746 17.2925L0.4429 12.3796C0.210094 12.1801 0.210094 11.8199 0.442899 11.6204Z" fill="white"/>
</svg>
