<svg width="23" height="30" viewBox="0 0 23 30" fill="none" xmlns="http://www.w3.org/2000/svg">
<path d="M21.7624 0.0810012C21.6595 0.0278129 21.5453 3.80944e-05 21.4294 -6.26877e-08C21.2848 0.000194474 21.1436 0.0441169 21.0244 0.126003L0.30898 14.4003C0.213687 14.4659 0.135776 14.5538 0.0819525 14.6562C0.028129 14.7586 5.13718e-06 14.8726 5.12706e-06 14.9883C5.11694e-06 15.104 0.028129 15.218 0.0819524 15.3204C0.135776 15.4229 0.213687 15.5107 0.30898 15.5763L21.0244 29.8746C21.1327 29.9488 21.2593 29.9918 21.3903 29.9989C21.5214 30.0061 21.6519 29.9772 21.7676 29.9153C21.8833 29.8534 21.9798 29.7609 22.0467 29.6479C22.1135 29.535 22.148 29.4058 22.1464 29.2746L22.1464 0.714014C22.1464 0.583479 22.1106 0.455454 22.0429 0.343849C21.9752 0.232244 21.8782 0.141333 21.7624 0.0810012Z" fill="#E5E5E5"/>
</svg>
